<?xml version="1.0" encoding="UTF-8" standalone="no"?>
<svg width="161px" height="43px" viewBox="0 0 161 43" version="1.1" xmlns="http://www.w3.org/2000/svg" xmlns:xlink="http://www.w3.org/1999/xlink">
    <!-- Generator: Sketch 39.1 (31720) - http://www.bohemiancoding.com/sketch -->
    <title>Group</title>
    <desc>Created with Sketch.</desc>
    <defs></defs>
    <g id="Welcome" stroke="none" stroke-width="1" fill="none" fill-rule="evenodd">
        <g id="Desktop" transform="translate(-127.000000, -582.000000)" fill="#221F20">
            <g id="Group" transform="translate(127.000000, 582.000000)">
                <path d="M28.3533,6.0333 C29.7953,6.0133 30.4733,5.7283 31.4733,6.0333 C31.4013,8.4933 31.8383,11.0953 31.9533,13.7133 C32.1653,18.5343 31.7593,23.9343 31.9533,28.3523 C31.9943,29.2863 32.1933,29.7503 32.1933,30.2733 C32.1933,30.7183 32.0043,30.8143 31.9533,31.2333 C31.7813,32.6373 32.2003,33.7713 31.7133,34.8333 C30.3903,35.0953 29.3803,34.7223 27.8733,34.5933 C27.4903,34.9223 27.8383,35.3593 27.8733,35.7933 C28.0083,37.4593 28.1083,38.9083 28.3533,40.3523 C30.8213,40.3433 33.0113,40.3323 34.8333,40.5933 C35.7013,40.7173 36.4313,41.0063 37.2333,41.0733 C38.8203,41.2053 40.3953,41.1453 42.0333,40.8333 C42.1793,39.6563 41.8283,38.7763 42.0333,37.9533 C42.1863,37.3393 42.0203,37.1013 42.0333,36.2733 C42.0423,35.7193 42.2773,35.4483 42.2743,34.8333 C41.0673,34.7593 39.4363,35.1103 38.9133,34.3523 C38.0573,27.3703 38.5223,19.9903 38.1933,12.7533 C38.1633,12.0773 37.9913,11.5113 37.9533,10.8333 C37.8873,9.6413 38.1383,8.4993 38.1933,7.2333 C38.2873,5.0963 38.1233,2.9183 38.1933,0.7533 C34.6663,0.5203 31.1083,1.4893 27.8733,0.7533 C27.7123,2.8343 28.2953,4.1713 28.3533,6.0333 M38.6733,0.0333 C38.9823,1.2583 38.9193,2.4633 38.9133,3.6333 C38.8953,7.2563 38.4863,12.0973 38.6733,16.3533 C38.7203,17.4043 38.8113,18.3473 38.9133,19.7133 C38.9193,19.7823 38.8673,20.1553 38.9133,20.1933 C39.2323,20.4543 38.9043,20.2673 38.9133,20.4333 C38.9453,20.9893 39.1203,21.5773 39.1533,22.5933 C39.2643,26.0013 38.8843,29.9323 39.3933,33.6333 C40.0263,34.3593 41.7003,34.0473 42.9933,34.1133 C42.5313,36.1313 42.8433,38.9233 42.7533,41.3133 C38.0963,42.7063 33.5473,40.4393 28.1133,41.0733 C27.4193,40.2783 27.5203,38.8193 27.3933,37.4723 C27.2743,36.2103 26.8463,34.8583 27.3933,33.8733 C28.3693,33.5533 29.6343,34.3323 30.9933,34.3523 C31.5883,33.4003 30.9953,32.3063 31.2333,30.9933 C31.2763,30.7593 31.4773,30.6363 31.4733,30.2733 C31.4683,29.6203 31.2383,29.0173 31.2333,28.3523 C31.2303,27.9173 30.9063,25.2613 31.2333,24.9933 C31.2503,24.9793 31.4713,25.0083 31.4733,24.9933 C31.5253,24.6643 31.2313,24.6013 31.2333,24.5133 C31.2383,24.3153 31.4733,24.2763 31.4733,24.0333 C31.4733,23.8403 31.2363,23.7923 31.2333,23.5533 C31.1613,18.0363 31.5163,12.4403 30.7533,6.9933 C29.9243,6.2893 29.2583,6.9023 27.8733,6.7533 C27.4033,4.8233 27.4313,2.3963 27.1533,0.2733 C27.3483,0.2273 27.3933,0.0323 27.6333,0.0333 C31.1213,0.7543 34.9033,-0.1827 38.6733,0.0333" id="Fill-1"></path>
                <path d="M152.7137,20.673 C153.0167,20.753 153.0507,20.893 153.4337,20.913 C153.6407,20.924 153.6287,21.143 153.6737,21.153 C154.4127,21.317 155.7357,21.289 156.3137,21.153 C156.7497,21.05 157.0457,20.591 157.2737,20.433 C157.7747,20.086 158.2537,20.005 158.4737,19.713 C158.5867,19.563 158.6537,19.123 158.7137,18.993 C158.7747,18.861 158.9477,18.625 158.9537,18.513 C158.9657,18.278 159.1677,18.353 159.1927,18.273 C159.2837,17.99 159.1497,17.608 159.1927,17.313 C159.2477,16.953 159.4597,16.886 159.4337,16.353 C159.4217,16.108 159.2367,16.073 159.1927,15.873 C159.1057,15.466 159.0177,15.169 158.9537,14.913 C158.9207,14.782 159.0177,14.55 158.9537,14.433 C158.9117,14.357 157.3657,13.01 157.0337,12.993 C156.5927,12.97 156.4197,12.531 156.0737,12.513 C155.8297,12.5 155.9257,12.306 155.8337,12.273 C155.6247,12.198 155.3317,12.32 155.1127,12.273 C154.7107,12.186 154.7207,11.946 154.3937,12.273 C154.2937,12.373 153.5887,12.265 153.4337,12.273 C152.5187,12.323 151.8667,12.406 151.5137,12.513 C150.6657,12.769 150.1407,12.78 149.3537,12.993 C148.5727,13.204 147.9397,13.407 147.6737,13.473 C147.5317,13.508 147.3257,13.416 147.1927,13.473 C147.0767,13.523 146.8547,13.885 146.7137,13.953 C146.3507,14.128 145.8487,14.213 145.5137,14.433 C145.4067,14.503 145.3857,14.829 145.2737,14.913 C145.0657,15.068 144.7377,15.014 144.5537,15.153 C143.8547,15.679 143.3567,16.337 142.6337,16.833 C142.2957,16.483 142.2077,15.99 141.9137,15.633 C141.5567,15.2 141.0847,15.055 140.7137,14.673 C140.0657,14.005 139.5817,13.016 138.5537,12.753 C138.3347,12.93 138.1067,12.846 137.8337,12.993 C137.7017,13.064 137.4977,13.38 137.3537,13.473 C137.1407,13.61 136.8587,13.556 136.6337,13.713 C136.4347,13.852 136.3587,14.292 136.1527,14.433 C135.9487,14.573 135.6107,14.568 135.4337,14.673 C135.3717,14.71 135.3067,14.841 135.1927,14.913 C135.0217,15.023 134.8717,15.049 134.7137,15.153 C134.5657,15.25 134.3937,15.526 134.2337,15.633 C133.9837,15.8 133.6637,15.851 133.5137,16.113 C134.5657,17.391 136.1337,17.723 137.1127,19.233 C137.6167,20.01 137.8417,21.169 138.0737,22.593 C138.3887,24.524 138.6997,26.883 138.5537,28.833 C138.5047,29.481 138.1537,30.146 138.0737,30.753 C137.8687,32.299 138.2657,33.906 137.5937,34.593 L134.4737,34.593 C134.4937,36.453 134.0607,37.86 134.2337,39.873 C136.8157,39.945 139.5727,39.775 141.4337,39.873 C141.6207,39.883 141.6537,40.11 141.6737,40.113 C142.0267,40.171 142.1797,39.881 142.3937,39.873 C144.2787,39.801 145.9357,39.928 147.6737,39.873 C148.0247,38.305 148.1687,36.528 148.1527,34.593 C146.7427,34.644 145.5817,34.445 144.5537,34.113 C145.3387,33.103 145.0337,31.333 145.0337,29.553 C145.0337,27.878 145.1777,25.972 144.7937,24.753 C145.0997,24.457 145.4157,23.873 145.5137,23.793 C145.5837,23.736 145.4727,23.4 145.5137,23.314 C145.5277,23.283 145.7257,23.336 145.7537,23.314 C145.8287,23.252 145.7017,22.921 145.7537,22.833 C145.8777,22.621 146.2957,22.379 146.4737,22.113 C146.6617,21.832 146.7647,21.348 146.9537,21.153 C147.1577,20.942 147.5927,20.903 147.9137,20.673 C148.0907,20.546 148.0847,20.21 148.3937,20.193 C148.6687,20.179 148.5027,20.033 148.6337,19.953 C149.2747,19.563 150.0787,19.287 150.7937,18.993 C151.3507,19.636 152.3587,19.828 152.7137,20.673 M150.5537,19.713 C150.0957,19.983 149.6277,20.106 149.1127,20.433 C148.9847,20.515 148.9537,20.621 148.8737,20.673 C148.2447,21.083 147.6517,21.395 147.1927,22.113 C147.0267,22.376 146.8857,22.564 146.7137,22.833 C146.5397,23.106 146.4437,23.333 146.2337,23.553 C146.1177,23.674 145.9537,24.164 145.7537,24.513 L145.7537,33.633 C145.7137,34.146 146.4617,33.75 146.9537,33.873 C147.2447,33.946 148.1897,34.326 148.8737,33.873 C148.9737,36.346 148.6707,39.245 148.3937,40.593 C144.7487,40.556 140.7967,40.643 136.8737,40.593 C135.7737,40.579 134.5227,40.784 133.5137,40.353 C133.3597,37.96 133.9287,36.288 133.7537,33.873 L137.1127,33.873 C137.5897,33.106 137.2517,32.141 137.3537,31.233 C137.5247,29.708 137.9857,28.192 137.8337,25.953 C137.7637,24.921 137.4547,23.97 137.3537,22.833 C137.2727,21.919 137.1977,20.955 136.8737,20.193 C136.3117,18.874 135.3207,18.367 134.2337,17.553 C133.8277,17.25 133.2827,16.628 132.5537,16.353 C132.6607,15.897 133.0387,15.831 133.2737,15.633 C133.3437,15.574 133.4487,15.182 133.5137,15.153 C133.6317,15.1 133.8907,15.228 133.9937,15.153 C134.2087,14.997 134.4707,14.589 134.7137,14.433 C134.8007,14.377 135.1307,14.51 135.1927,14.433 C135.2607,14.351 135.3527,14.008 135.4337,13.953 C135.7007,13.772 136.1427,13.647 136.3937,13.473 C136.4797,13.414 136.5577,13.027 136.6337,12.993 C137.1047,12.781 137.3817,12.803 137.8337,12.513 C138.0607,12.368 138.2327,12.09 138.5537,12.033 C139.2087,11.897 139.3257,12.649 139.7537,12.993 C140.0947,13.267 140.6227,13.403 140.9537,13.713 C141.2547,13.995 141.6347,14.371 141.9137,14.673 C142.2277,15.012 142.6177,15.382 142.6337,15.873 C142.9717,15.96 143.3097,15.611 143.5937,15.393 C143.6717,15.334 143.7627,14.945 143.8337,14.913 C143.9467,14.862 144.2187,14.989 144.3137,14.913 C144.6417,14.651 144.7927,14.259 145.2737,13.953 C145.4817,13.82 146.5937,13.233 147.1927,12.993 C147.2787,12.959 147.6197,13.059 147.6737,12.993 C147.9727,12.628 149.1667,12.498 150.0737,12.273 C152.0157,11.792 153.9017,11.318 155.3537,11.553 C155.3717,11.556 155.4067,11.783 155.5937,11.793 C156.1187,11.821 156.3467,11.821 156.7937,12.033 C156.9097,12.088 156.7707,12.259 157.0337,12.273 C157.5867,12.302 158.2117,13.038 158.7137,13.473 C158.8917,13.627 159.3057,13.768 159.4337,13.953 C159.4937,14.04 159.3557,14.369 159.4337,14.433 C159.4617,14.456 159.6587,14.403 159.6737,14.433 C159.7147,14.52 159.6037,14.856 159.6737,14.913 C160.2727,15.403 160.2817,17.011 159.9137,18.273 C159.8927,18.344 159.6857,18.286 159.6737,18.513 C159.6697,18.577 159.6967,18.694 159.6737,18.753 C159.6087,18.917 159.4607,18.927 159.4337,18.993 C159.3097,19.297 159.3817,19.682 159.1927,19.953 C159.0437,20.169 158.6607,20.246 158.4737,20.433 C158.3007,20.606 158.1877,21.019 157.9937,21.153 C157.9067,21.213 157.5777,21.074 157.5137,21.153 C157.4907,21.181 157.5437,21.379 157.5137,21.393 C157.4267,21.435 157.0907,21.323 157.0337,21.393 C156.7827,21.699 156.6217,21.489 155.8337,21.633 C155.5997,21.676 155.4757,21.874 155.1127,21.873 C154.7227,21.871 154.7047,21.688 154.3937,21.633 C153.3337,21.446 152.6457,21.351 151.7537,20.673 C151.3657,20.379 151.1927,19.763 150.5537,19.713" id="Fill-3"></path>
                <path d="M116.1932,12.753 C116.0442,12.791 115.8622,12.712 115.7132,12.753 C115.0332,12.942 114.6852,13.405 114.2732,12.993 C114.1032,12.823 113.6242,13.229 113.5532,13.233 C112.9132,13.59 112.1412,14.078 111.3932,14.673 C110.8532,15.103 109.2602,16.328 109.2332,16.833 C109.2182,17.113 109.0942,16.938 108.9942,17.073 C108.6112,17.586 107.8152,18.577 107.7942,18.993 C107.7752,19.338 107.3302,19.394 107.3132,19.713 C107.2942,20.098 106.6702,21.033 106.5932,21.153 C106.3872,21.476 106.1252,21.903 106.1132,22.113 C106.1012,22.351 105.9022,22.269 105.8742,22.353 C105.7862,22.616 105.8882,23.033 105.8742,23.314 C105.8632,23.514 105.6412,23.517 105.6332,23.553 C105.4122,24.651 105.5062,25.416 105.3932,26.433 C105.3672,26.677 105.2012,26.712 105.1532,26.913 C104.9022,27.981 105.5052,29.849 105.6332,30.274 C105.9222,31.226 105.4542,31.774 105.8742,32.194 C106.1132,32.432 105.8362,32.927 106.1132,33.153 C106.1932,33.218 106.0492,33.548 106.1132,33.633 C106.2452,33.808 106.5772,33.805 106.5932,34.113 C106.6082,34.391 106.7452,34.219 106.8342,34.353 C107.4052,35.215 108.3222,35.836 108.5132,36.993 C109.4702,37.397 110.0862,38.141 110.6732,38.913 C112.1892,39.032 112.6342,40.064 113.7942,40.353 C113.9552,40.394 114.0012,40.583 114.0342,40.593 C114.9872,40.883 115.5692,40.764 116.6732,40.833 C117.2902,40.871 118.0692,41.08 118.5932,41.073 C119.4742,41.062 121.5962,40.683 121.9542,40.593 C122.7452,40.396 123.1522,40.408 123.3932,40.113 C123.4542,40.039 123.7862,40.162 123.8742,40.113 C124.0102,40.037 124.1962,39.718 124.3532,39.633 C124.6132,39.494 124.8652,39.514 125.0742,39.393 C125.2732,39.278 125.5802,38.924 125.7942,38.913 C126.0652,38.899 125.9072,38.743 126.0342,38.673 C126.7812,38.258 127.1912,37.883 127.7132,37.473 C128.1722,37.132 128.5722,36.732 128.9142,36.274 C128.8122,35.174 127.6622,35.125 127.2332,34.353 C126.5942,33.792 126.3312,32.856 125.3132,32.673 C124.5182,32.758 124.2722,33.392 123.8742,33.873 C123.0702,34.043 122.7312,34.597 121.9542,34.833 C120.9142,35.149 119.0672,35.001 118.3532,34.833 C118.0522,34.762 117.6922,34.914 117.3932,34.833 C117.3202,34.814 117.0152,34.407 116.9142,34.353 C116.3692,34.06 115.8292,34.038 115.4732,33.873 C115.3342,33.809 115.1702,33.448 114.7542,33.633 C113.7282,32.339 112.3172,31.43 112.1132,29.314 C113.8992,29.367 115.4072,29.699 117.3932,29.553 L117.3932,24.033 C116.1702,24.179 115.0682,23.898 114.5132,23.793 C114.1592,23.726 113.6242,23.899 113.5532,23.553 C113.8912,20.771 115.8472,19.607 117.8742,18.513 C118.0862,17.763 117.6382,17.349 117.6332,17.073 C117.6242,16.504 117.9002,16.047 117.8742,15.393 C117.8532,14.906 117.9422,14.176 117.8742,13.713 C117.8132,13.306 117.7812,12.419 117.1532,12.513 C116.7112,12.401 116.4382,12.692 116.1932,12.753 M118.1132,12.273 C118.5452,13.466 118.2802,16.934 118.3532,19.233 C116.2332,19.753 114.7692,20.929 114.2732,23.073 C114.4662,23.798 115.6292,22.918 115.9542,23.314 C116.2112,23.629 116.0232,23.315 116.1932,23.314 C116.3732,23.312 116.4512,23.53 116.6732,23.553 C117.1992,23.606 117.4422,22.764 117.8742,23.314 C118.4112,25.096 117.9702,27.857 118.1132,30.033 C115.9962,30.048 115.0432,30.271 113.0742,30.033 C112.5802,30.982 114.2352,31.459 114.2732,32.194 C114.2882,32.458 114.5722,32.557 114.7542,32.673 C115.0162,32.841 115.2042,32.982 115.4732,33.153 C115.5762,33.218 115.6662,33.366 115.7132,33.393 C116.0342,33.57 116.3382,33.461 116.6732,33.633 C116.7882,33.692 117.0652,34.085 117.1532,34.113 C117.3722,34.183 117.6542,34.047 117.8742,34.113 C117.9982,34.151 118.1272,34.356 118.1132,34.353 C119.1352,34.519 120.8602,34.509 121.4732,34.353 C123.2212,33.909 123.7302,32.305 125.3132,31.953 C125.3142,32.2 125.6142,32.121 125.7942,32.194 C126.2972,32.395 127.1332,33.34 127.7132,33.873 C127.9062,34.05 127.9922,34.436 128.1932,34.593 C128.3492,34.715 128.7562,34.69 128.9142,34.833 C129.2852,35.174 129.4722,35.72 129.8742,36.033 C129.8452,36.479 129.4212,36.419 129.1532,36.753 C128.9242,37.038 128.9502,37.45 128.6732,37.713 C128.5962,37.787 128.2592,37.632 128.1932,37.713 C128.0052,37.944 127.9542,38.01 127.7132,38.194 C127.6352,38.253 127.5452,38.642 127.4732,38.673 C127.3572,38.726 127.0932,38.598 126.9942,38.673 C126.7422,38.863 126.5582,39.178 126.2732,39.393 C125.7592,39.781 124.9082,40.087 124.1132,40.593 C123.8102,40.786 123.2202,40.876 122.4332,41.073 C121.3732,41.338 119.8072,41.651 117.8742,41.553 C116.6422,41.491 115.3072,41.423 114.2732,41.314 C114.2812,41.314 114.2002,41.082 114.0342,41.073 C113.4392,41.042 113.0502,40.89 112.5932,40.593 C112.2442,40.366 112.0932,40.166 111.6332,39.873 C111.5262,39.805 110.8832,39.69 110.6732,39.393 C110.2012,39.184 109.8712,38.773 109.4732,38.433 C109.1272,38.136 108.5952,37.825 108.2732,37.473 C108.1582,37.347 107.8772,37.111 107.7942,36.993 C107.7332,36.906 107.8722,36.577 107.7942,36.513 C107.7562,36.483 107.5802,36.551 107.5532,36.513 C107.4282,36.334 107.4632,35.991 107.3132,35.793 C107.1652,35.594 106.5972,35.423 106.3532,35.073 C106.2932,34.986 106.4322,34.657 106.3532,34.593 C106.1742,34.446 105.7602,34.296 105.6332,34.113 C105.5732,34.027 105.7112,33.697 105.6332,33.633 C105.4372,33.473 105.4672,33.45 105.3932,33.153 C105.3382,32.928 105.2622,32.552 105.1532,32.194 C105.0712,31.921 105.0082,31.26 104.9142,30.274 C104.8132,29.23 104.5062,27.102 104.6732,25.473 C104.9052,23.21 105.9532,20.793 107.0742,18.993 C107.1772,18.825 107.1742,18.459 107.3132,18.273 C107.3992,18.159 107.7202,18.141 107.7942,18.033 C107.9462,17.807 107.9132,17.53 108.0342,17.313 C108.1042,17.187 108.2592,17.345 108.2732,17.073 C108.2932,16.715 108.8512,16.542 109.2332,16.113 C109.3102,16.026 109.1522,15.715 109.2332,15.633 C109.3132,15.553 109.6332,15.713 109.7132,15.633 C109.7942,15.553 109.6332,15.233 109.7132,15.153 C109.7952,15.072 110.1092,15.232 110.1932,15.153 C110.4442,14.919 110.6122,14.432 110.9142,14.193 C111.1222,14.028 111.4472,14.127 111.6332,13.953 C111.7292,13.864 111.7742,13.542 111.8742,13.473 C112.0952,13.321 112.3792,13.352 112.5932,13.233 C112.7202,13.163 112.5622,13.007 112.8342,12.993 C112.8882,12.99 113.0262,13.019 113.0742,12.993 C113.2302,12.908 113.4172,12.589 113.5532,12.513 C113.6412,12.465 113.9732,12.587 114.0342,12.513 C114.5022,11.94 117.1542,11.333 118.1132,12.273" id="Fill-6"></path>
                <path d="M120.2733,16.5929 C120.2433,17.7259 120.1983,18.6909 120.0343,19.2329 C121.2073,19.3339 121.7143,20.3829 122.1933,21.1539 C122.2843,21.2979 122.5843,21.4669 122.6733,21.6329 C122.7833,21.8369 122.8623,22.1999 122.9143,22.3529 C123.1063,22.9209 123.2553,23.4579 123.1533,24.2739 C122.8593,24.5689 122.4153,24.2359 121.9543,24.2739 C121.9863,24.2709 121.8353,24.4829 121.7133,24.5129 C121.1393,24.6569 120.7153,24.4029 120.2733,24.5129 C120.4523,26.0149 120.5993,27.5469 120.5133,29.3139 C121.5983,29.5169 122.7103,29.1289 123.8743,29.0729 C126.2813,28.9579 128.7353,29.3529 130.8343,28.8329 C131.2593,27.9549 131.3343,26.9729 131.3133,25.9529 C131.2953,25.0949 130.8803,23.0689 130.5933,22.8329 C130.5733,22.8169 130.3513,22.1039 130.3533,22.1139 C130.3183,21.9709 130.4093,21.7689 130.3533,21.6329 C130.3063,21.5199 129.9343,21.2939 129.8743,21.1539 C129.8163,21.0209 129.9093,20.8149 129.8743,20.6729 C129.7413,20.1429 129.3803,19.7849 129.1533,19.2329 C128.7453,18.2389 128.6533,17.9289 128.1933,17.5529 C128.1123,17.4869 128.2643,17.1539 128.1933,17.0729 C127.8143,16.6439 126.9093,16.1889 126.2733,15.6329 C125.7453,15.1709 125.4753,14.6799 125.0743,14.4329 C124.4823,14.0689 124.2403,13.9619 123.6333,13.7129 C123.6063,13.7019 123.6543,13.4989 123.6333,13.4729 C123.5803,13.4069 123.2393,13.5079 123.1533,13.4729 C122.2753,13.1219 120.7523,12.7099 120.0343,12.7529 C120.3143,13.9039 120.3123,15.1439 120.2733,16.5929 M119.5533,12.0329 C120.2903,11.9999 122.0943,12.4259 122.9143,12.7529 C122.9993,12.7869 123.3393,12.6869 123.3933,12.7529 C123.6303,13.0429 124.3693,13.1629 124.8343,13.4729 C125.0563,13.6219 125.2203,13.9329 125.5533,14.1929 C125.8963,14.4609 126.3643,14.5879 126.7533,14.9129 C127.0823,15.1869 127.3443,15.5719 127.7133,15.8729 C128.0333,16.1349 128.4803,16.3789 128.6733,16.5929 C128.8363,16.7739 128.7523,17.1389 128.9143,17.3129 C128.9913,17.3969 129.3413,17.4669 129.3933,17.5529 C129.5643,17.8379 129.5323,18.2759 129.6333,18.5129 C129.6973,18.6609 129.7773,18.8419 129.8743,18.9929 C129.9863,19.1699 130.1843,19.6969 130.3533,20.1929 C130.4763,20.5539 130.6403,21.1519 130.8343,21.6329 C130.9453,21.9109 131.0943,22.2329 131.3133,22.8329 C131.4613,23.2359 131.5893,23.7629 131.7933,24.2739 C131.8963,24.5299 132.1053,24.7809 132.0343,25.2339 C132.0413,25.1879 131.6323,25.3439 131.7933,25.4729 C132.4283,25.9809 131.7573,28.0489 131.7933,29.0729 C131.2403,28.8519 131.0053,29.3999 130.5933,29.5529 C128.1043,30.4809 123.0333,29.3569 119.7943,29.7929 C120.0453,27.5249 119.3093,25.5679 119.7943,23.7929 C120.2113,23.4959 121.3873,23.9769 122.4333,23.7929 C122.3293,21.4979 121.1893,20.2369 119.3133,19.7129 C119.8263,17.5859 119.4273,14.5479 119.5533,12.0329" id="Fill-8"></path>
                <path d="M55.4735,12.9933 C54.9105,13.0923 52.8275,13.9073 52.5935,14.1933 C52.5365,14.2633 52.2005,14.1523 52.1135,14.1933 C52.0835,14.2073 52.1365,14.4053 52.1135,14.4333 C52.0485,14.5123 51.4745,14.6213 51.3935,14.6733 C51.2205,14.7833 51.0715,14.8053 50.9135,14.9133 C50.6505,15.0923 50.4395,15.4663 50.1935,15.6333 C49.7395,15.9413 49.2565,15.6773 49.2335,16.1133 C49.2195,16.3863 49.1365,16.2293 48.9935,16.3533 C48.5695,16.7203 48.1175,16.9083 47.7935,17.3133 C47.5535,17.6133 47.5605,17.9553 47.3135,18.2733 C47.1275,18.5123 46.7645,18.7663 46.5935,18.9933 C46.4785,19.1453 46.4605,19.3263 46.3535,19.4733 C46.2425,19.6243 45.9695,19.7763 45.8735,19.9533 C45.6455,20.3753 45.5775,20.8643 45.3935,21.3923 C45.3635,21.4803 45.2075,21.4193 45.1535,21.6333 C45.1155,21.7843 45.1865,21.9613 45.1535,22.1133 C44.8395,23.5653 44.0785,25.0803 43.9535,26.1933 C43.7795,27.7453 44.0245,29.6173 44.1935,30.7533 C44.2875,31.3843 44.3235,32.3253 44.4335,32.6733 C44.4405,32.6953 44.6515,32.6553 44.6735,32.6733 C44.7435,32.7303 44.6325,33.0653 44.6735,33.1533 C44.6875,33.1823 44.8855,33.1303 44.9135,33.1533 C44.9885,33.2143 44.8635,33.5453 44.9135,33.6333 C44.9325,33.6673 45.1215,33.6063 45.1535,33.6333 C45.2335,33.6983 45.0895,34.0273 45.1535,34.1133 C45.2845,34.2883 45.6175,34.2853 45.6335,34.5933 C45.6485,34.8703 45.7875,34.7003 45.8735,34.8333 C46.2145,35.3603 46.4795,35.9593 46.5935,36.5133 C47.0095,36.8153 47.3405,36.7893 47.7935,36.9933 C47.8655,37.0253 47.9535,37.4133 48.0335,37.4723 C48.3615,37.7183 48.6635,38.0833 48.7535,38.1933 C48.8185,38.2723 49.1485,38.1293 49.2335,38.1933 C49.3505,38.2803 49.3385,38.5933 49.4735,38.6733 C49.7795,38.8553 50.1075,38.7853 50.4335,38.9133 C50.5845,38.9723 50.7855,39.1463 50.9135,39.1533 C51.3675,39.1773 52.0395,39.7993 52.1135,39.8733 C52.2505,40.0113 52.8805,39.8053 53.0735,39.8733 C53.0995,39.8823 53.0515,40.0913 53.0735,40.1133 C53.2875,40.3273 54.0205,40.1913 54.2735,40.3523 C54.9775,40.8023 56.0175,40.9943 56.9135,41.0733 C56.9415,38.9663 56.9535,36.8733 56.6735,35.0733 C55.9875,34.8233 55.5335,34.4803 55.2335,34.1133 C55.1685,34.0333 54.8385,34.1773 54.7535,34.1133 C54.5575,33.9653 54.2225,33.5823 54.0335,33.3923 C53.7565,33.1163 53.4695,32.8743 53.3135,32.6733 C53.1125,32.4143 53.2475,31.9893 53.0735,31.7133 C53.0185,31.6263 52.6745,31.5543 52.5935,31.4723 C52.5125,31.3923 52.3985,31.0903 52.3535,30.9933 C52.0695,30.3773 51.7295,28.9103 51.6335,28.5933 C51.1815,27.0973 51.6185,24.5693 52.1135,23.7933 C52.2175,23.6313 52.2715,23.4703 52.3535,23.3133 C52.6335,22.7793 52.8685,22.5203 53.0735,22.3523 C53.1535,22.2883 53.0095,21.9583 53.0735,21.8733 C53.2045,21.6983 53.5375,21.7013 53.5535,21.3923 C53.5945,20.6153 55.0075,20.2113 55.4735,19.9533 C55.9925,19.6663 56.3375,19.2053 56.9135,19.2333 C57.1605,17.2223 57.2765,14.9743 56.9135,12.9933 C56.4695,13.0593 55.9755,12.9053 55.4735,12.9933 M56.9135,12.2733 C58.5205,13.7793 57.5945,17.1113 57.6335,19.7133 C57.4725,20.0243 57.0215,19.8053 56.6735,19.9533 C56.2845,20.1173 56.0425,20.4293 55.4735,20.6733 C54.9675,20.8903 54.7045,21.0723 54.2735,21.6333 C54.0135,21.9703 53.6145,22.2753 53.3135,22.8333 C53.1945,23.0543 52.8525,23.4373 52.8335,23.7933 C52.8255,23.9353 52.6705,24.4463 52.5935,24.7533 C52.3315,25.8003 51.9685,27.0843 52.3535,28.8333 C52.4205,29.1383 52.7325,29.6293 52.8335,30.0333 C52.9515,30.5043 52.8665,30.6693 53.0735,30.9933 C53.2405,31.2563 53.3815,31.4433 53.5535,31.7133 C53.5845,31.7613 54.4965,32.5823 54.5135,32.9133 C54.5335,33.2943 55.0635,33.4703 55.2335,33.6333 C55.3435,33.7383 55.8425,33.9413 56.1935,34.1133 C56.2955,34.1633 56.2155,34.2993 56.4335,34.3523 C56.9645,34.4853 56.8855,34.5933 57.6335,34.5933 C57.5965,35.6973 57.6815,37.1333 57.6335,38.4323 C57.5885,39.6543 57.8905,40.8773 57.1535,41.5523 C56.5885,41.9313 55.9235,41.5733 55.2335,41.3133 C55.1485,41.2813 54.8065,41.3783 54.7535,41.3133 C54.4735,40.9723 53.5525,40.7493 52.8335,40.5933 C52.6145,40.5453 52.3245,40.6663 52.1135,40.5933 C52.0255,40.5623 52.1145,40.3653 51.8735,40.3523 C51.7615,40.3473 51.5255,40.1743 51.3935,40.1133 C51.0875,39.9723 50.8625,39.7403 50.4335,39.6333 C49.6205,39.4293 49.1985,39.2473 48.5135,38.6733 C47.8475,38.1153 47.0675,37.4183 46.1135,36.9933 C45.9155,36.2153 45.3245,35.5563 44.9135,34.8333 C44.7225,34.4973 44.6525,34.0393 44.4335,33.6333 C44.3315,33.4443 44.0735,33.4143 43.9535,33.1533 C43.9135,33.0663 44.0225,32.7293 43.9535,32.6733 C43.7585,32.5133 43.6025,31.6773 43.4735,30.7533 C43.2655,29.2643 43.0445,26.7093 43.4735,24.9933 C43.5225,24.7993 43.6955,24.8153 43.7135,24.7533 C43.8415,24.3043 43.8145,23.7763 43.9535,23.3133 C43.9625,23.2823 44.1535,23.2323 44.1935,23.0733 C44.3225,22.5573 44.2325,22.5503 44.4335,21.8733 C44.5655,21.4273 44.7295,21.0923 44.9135,20.6733 C44.9935,20.4903 45.0295,20.1833 45.1535,19.9533 C45.2435,19.7863 45.5435,19.6173 45.6335,19.4733 C45.7885,19.2253 45.6885,18.9513 45.8735,18.7533 C45.9655,18.6543 46.2815,18.6153 46.3535,18.5133 C46.8575,17.8013 47.2935,16.8503 47.7935,16.3533 C47.9845,16.1633 48.2845,16.2843 48.5135,16.1133 C48.6525,16.0093 48.9545,15.1803 49.4735,15.1533 C49.5195,15.1503 49.6765,15.1793 49.7135,15.1533 C49.9735,14.9733 50.1605,14.6073 50.4335,14.4333 C50.5215,14.3773 50.8505,14.5103 50.9135,14.4333 C51.1835,14.1023 51.3115,13.9383 51.8735,13.7133 C51.9585,13.6793 52.2995,13.7793 52.3535,13.7133 C52.3755,13.6863 52.3245,13.4863 52.3535,13.4733 C52.4405,13.4343 52.7775,13.5413 52.8335,13.4733 C52.8565,13.4453 52.8035,13.2473 52.8335,13.2333 C52.9205,13.1923 53.2565,13.3033 53.3135,13.2333 C53.4915,13.0153 54.3905,12.7543 54.9935,12.5133 C55.0785,12.4793 55.4195,12.5793 55.4735,12.5133 C55.5905,12.3693 56.1635,12.1313 56.9135,12.2733" id="Fill-10"></path>
                <path d="M59.7938,18.753 C60.9278,19.657 62.5478,20.48 63.6338,21.873 C64.1968,22.596 64.8668,23.479 65.0738,24.513 C65.3228,25.763 65.0868,28.909 64.5938,29.314 C64.5278,29.367 64.6278,29.708 64.5938,29.793 C64.3198,30.477 64.2238,31.187 63.8738,31.473 C63.8038,31.53 63.9148,31.866 63.8738,31.953 C63.8588,31.983 63.6618,31.93 63.6338,31.953 C63.5548,32.018 63.6948,32.347 63.6338,32.433 C63.4108,32.745 62.6128,33.282 62.4338,33.393 C62.2448,33.509 61.9188,33.862 61.7138,33.873 C61.4508,33.887 61.5898,34.058 61.4738,34.113 C61.1038,34.288 59.8988,34.403 60.0338,35.073 C59.9448,37.321 60.6418,38.785 60.5138,41.073 C61.7588,41.223 62.8488,40.431 63.8738,39.873 C64.3428,39.617 64.6018,39.606 65.0738,39.393 C65.1568,39.356 65.2148,38.97 65.3138,38.913 C65.4348,38.843 65.6658,38.971 65.7938,38.913 C65.8818,38.873 65.9258,38.486 66.0338,38.433 C66.4158,38.247 66.7128,38.413 66.9938,38.194 C67.1958,38.034 67.6098,37.605 67.9538,37.233 C68.0858,37.09 68.3268,36.893 68.4338,36.753 C68.5788,36.564 68.5138,36.226 68.6738,36.033 C68.9588,35.69 69.3608,35.412 69.6338,35.073 C69.8978,34.745 70.3408,34.364 70.3528,34.113 C70.3678,33.842 70.5248,33.998 70.5938,33.873 C70.7988,33.495 70.8848,32.924 71.0738,32.433 C71.2298,32.029 71.5418,31.45 71.5538,31.233 C71.5648,31.012 71.7768,31.056 71.7938,30.993 C71.8718,30.702 71.7598,30.334 71.7938,30.033 C71.8428,29.591 71.9938,29.495 72.0338,29.073 C72.2328,26.986 71.8208,25.666 71.5538,24.274 C71.4158,23.556 71.5198,22.506 71.3138,21.873 C71.2848,21.783 70.8928,21.509 70.8338,21.393 C70.6618,21.058 70.7708,20.754 70.5938,20.433 C70.5668,20.385 70.4188,20.296 70.3528,20.193 C70.1818,19.924 70.0408,19.736 69.8738,19.473 C69.5888,19.027 69.4348,18.983 69.1538,18.753 C69.0728,18.687 69.2208,18.357 69.1538,18.273 C68.9918,18.071 68.5978,17.999 68.4338,17.793 C68.0338,17.29 67.8178,16.659 67.4738,16.353 C67.4228,16.308 67.0408,16.115 66.9938,16.113 C66.7168,16.099 66.8858,15.956 66.7538,15.873 C66.4738,15.698 66.0508,15.545 65.7938,15.393 C65.7588,15.373 65.8208,15.186 65.7938,15.153 C65.7358,15.083 65.4008,15.195 65.3138,15.153 C65.2838,15.139 65.3368,14.941 65.3138,14.913 C65.2558,14.842 64.9208,14.956 64.8338,14.913 C64.8028,14.898 64.8568,14.702 64.8338,14.673 C64.7758,14.603 64.4408,14.715 64.3528,14.673 C64.3238,14.659 64.3768,14.461 64.3528,14.433 C64.2988,14.366 63.9588,14.468 63.8738,14.433 C63.8438,14.421 63.8978,14.218 63.8738,14.193 C63.6348,13.954 63.1398,14.23 62.9138,13.953 C62.8568,13.883 62.5208,13.994 62.4338,13.953 C62.4038,13.939 62.4568,13.741 62.4338,13.713 C62.3838,13.653 62.0358,13.738 61.9538,13.713 C60.9878,13.414 60.1218,13.238 59.5538,12.993 C59.9708,14.576 59.7338,16.813 59.7938,18.753 M60.0338,41.793 C59.6978,39.329 59.5418,36.685 59.0738,34.353 C59.8138,34.474 60.4468,33.435 61.2338,33.393 C61.5588,33.376 62.1198,32.954 62.4338,32.673 C62.6678,32.462 63.0588,32.095 63.1538,31.953 C63.2118,31.866 63.0758,31.537 63.1538,31.473 C63.1818,31.45 63.3788,31.503 63.3938,31.473 C63.4348,31.386 63.3238,31.05 63.3938,30.993 C63.6698,30.767 63.3948,30.273 63.6338,30.033 C63.7208,29.945 63.9958,29.518 64.1138,29.073 C64.3728,28.095 64.5838,24.872 64.1138,23.793 C64.0658,23.684 63.8868,23.811 63.8738,23.553 C63.8628,23.348 63.5098,23.022 63.3938,22.833 C63.3058,22.691 63.2618,22.494 63.1538,22.353 C62.0368,20.903 60.2638,20.06 59.0738,19.233 C59.2178,16.978 58.7748,14.134 59.3138,12.273 C59.8128,12.051 60.4258,12.547 60.9938,12.753 C61.7038,13.011 62.0978,12.961 62.9138,13.233 C62.9978,13.261 62.9158,13.461 63.1538,13.473 C63.2448,13.478 64.2238,13.555 64.3528,13.713 C64.6308,14.051 65.8308,14.486 66.5138,14.913 C66.7938,15.089 66.9698,15.444 67.2338,15.633 C67.5618,15.868 67.9728,15.907 68.1938,16.113 C68.6228,16.514 69.1268,17.356 69.6338,18.033 C69.9128,18.406 70.2078,18.76 70.5938,19.233 C70.7068,19.372 70.9988,19.594 71.0738,19.713 C71.2638,20.016 71.1458,20.344 71.3138,20.673 C71.3768,20.798 71.7568,21.053 71.7938,21.153 C72.0668,21.904 72.0968,22.871 72.2738,23.793 C72.3498,24.19 72.4118,24.565 72.5138,24.993 C72.8178,26.273 72.6608,28.146 72.5138,29.793 C72.4798,30.176 72.5988,30.62 72.5138,30.993 C72.5028,31.04 72.2848,31.024 72.2738,31.233 C72.2458,31.756 71.9978,31.882 71.7938,32.433 C71.5818,33.006 71.5348,33.697 71.3138,34.113 C71.2478,34.237 71.0878,34.083 71.0738,34.353 C71.0698,34.419 70.8878,34.758 70.8338,34.833 C70.7738,34.916 70.3868,34.999 70.3528,35.073 C70.3028,35.185 70.4298,35.46 70.3528,35.553 C69.9648,36.029 69.5298,36.327 69.1538,36.753 C68.7648,37.195 68.4028,37.504 67.9538,37.953 C67.6388,38.267 67.2168,38.693 66.9938,39.153 C64.4368,39.796 63.2858,41.845 60.0338,41.793" id="Fill-12"></path>
                <path d="M24.9935,17.7931 C24.9305,17.6981 24.7835,17.6021 24.7535,17.5531 C24.6465,17.3801 24.6575,16.9901 24.5135,16.8331 C24.2155,16.5071 23.6685,16.4001 23.3135,16.1131 C22.7125,15.6271 22.2055,15.1771 21.6335,14.9131 C21.2105,14.7181 20.9345,14.5581 20.4335,14.4331 C20.3095,14.4021 20.1785,14.1901 20.1935,14.1931 C19.4145,14.0321 14.2615,14.2611 13.9535,13.9531 C13.8985,13.8981 14.0185,13.5031 13.9535,13.4731 C13.2455,13.1481 12.1775,13.6821 12.0335,13.7131 C10.8545,13.9691 9.1295,14.1151 8.6735,14.6731 C8.6575,14.6931 7.9445,14.9151 7.9535,14.9131 C7.2785,15.0821 7.2275,15.2501 6.7535,15.6331 C5.3295,16.7871 4.2795,17.6341 3.3935,18.9931 C3.2975,19.1401 3.0055,19.3031 2.9135,19.4731 C2.7725,19.7341 2.7985,19.9831 2.6735,20.1931 C2.5895,20.3351 2.2815,20.5101 2.1935,20.6731 C2.0605,20.9211 2.0565,21.1941 1.9535,21.3931 C1.8835,21.5281 1.7775,21.3771 1.7135,21.6331 C1.6285,21.9751 1.6285,22.1211 1.4735,22.3531 C1.1595,22.8241 1.3855,23.1851 1.2335,23.7931 C1.2015,23.9221 0.9915,24.0431 0.9935,24.0331 C0.6115,25.7891 0.8115,27.2901 0.9935,29.0731 C1.1175,30.2871 1.5455,31.2461 1.2335,32.4331 C1.6275,32.6841 1.4605,32.9971 1.7135,33.3931 C1.8285,33.5731 2.1775,33.5621 2.1935,33.8731 C2.2085,34.1491 2.3495,33.9801 2.4335,34.1131 C2.8435,34.7631 2.9635,35.2011 3.3935,35.5531 C3.4735,35.6181 3.3275,35.9491 3.3935,36.0331 C3.5475,36.2291 4.0295,36.6921 4.3535,36.9931 C4.4965,37.1261 4.6945,37.3661 4.8335,37.4731 C5.0045,37.6051 5.3935,37.5611 5.5535,37.7131 C5.8645,38.0101 6.2345,38.3581 6.5135,38.6731 C6.6745,38.8541 6.5995,39.2221 6.7535,39.3931 C6.7845,39.4281 7.2035,39.6321 7.2335,39.6331 C7.5085,39.6481 7.3435,39.7961 7.4735,39.8731 C7.8335,40.0871 9.0285,40.2621 9.3935,40.3531 C9.5855,40.4011 9.5625,40.5641 9.6335,40.5931 C10.3375,40.8711 11.9315,41.2281 12.2735,41.3141 C12.5785,41.3901 12.5765,41.3761 12.7535,41.5531 C12.8515,41.6501 13.5615,41.5481 13.7135,41.5531 C14.6855,41.5881 16.3415,41.1461 17.0735,41.0731 C17.9565,40.9851 18.5135,40.8941 18.7535,40.8331 C19.0625,40.7561 19.2615,40.6461 19.4735,40.5931 C19.6175,40.5571 19.8155,40.6471 19.9535,40.5931 C20.0555,40.5541 20.3125,40.1851 20.4335,40.1131 C20.5535,40.0431 20.7855,40.1711 20.9135,40.1131 C20.9925,40.0771 21.0615,39.6911 21.1535,39.6331 C21.2665,39.5611 21.5095,39.6891 21.6335,39.6331 C21.7115,39.5981 21.7845,39.2121 21.8735,39.1531 C21.9845,39.0791 22.2315,39.2081 22.3535,39.1531 C22.4285,39.1191 22.5105,38.7321 22.5935,38.6731 C22.8025,38.5231 23.1295,38.5591 23.3135,38.4331 C23.3955,38.3771 23.4855,38.0361 23.5535,37.9531 C23.6195,37.8721 23.9515,38.0221 24.0335,37.9531 C24.4855,37.5741 24.8955,37.0481 24.9935,36.5131 C24.4975,36.5481 24.1325,36.0271 23.7935,35.7931 C23.6435,35.6891 23.4875,35.4061 23.3135,35.3141 C23.0355,35.1631 22.8115,35.2351 22.5935,35.0731 C21.9045,34.5611 21.3575,33.6651 20.4335,33.3931 C19.6985,33.8471 19.0385,34.4841 18.7535,34.8331 C18.6995,34.8991 18.3595,34.7991 18.2735,34.8331 C17.6365,35.0881 17.2705,35.4681 16.5935,35.5531 C14.7315,35.7881 11.5715,34.7741 10.8335,33.8731 C10.7695,33.7951 10.4405,33.9341 10.3535,33.8731 C10.1715,33.7461 10.0205,33.3321 9.8735,33.1531 C9.8095,33.0741 9.4805,33.2131 9.3935,33.1531 C9.3085,33.0941 8.9195,32.5391 8.9135,32.4331 C8.8995,32.1551 8.7595,32.3261 8.6735,32.1931 C7.7095,30.7031 6.9335,28.5961 7.2335,26.4331 C7.3125,25.8671 7.8415,24.7931 7.9535,24.5131 C8.1735,23.9651 8.2095,23.5181 8.4335,23.0731 C9.0345,21.8811 9.8325,20.8231 10.5935,20.4331 C10.7415,20.3571 11.1445,20.4421 11.3135,20.4331 C11.5375,20.4211 11.4875,20.2111 11.5535,20.1931 C12.8025,19.8451 13.4295,19.7931 14.6735,19.4731 C14.7245,19.7031 14.8775,19.6981 15.1535,19.7131 C15.4305,19.7281 15.2605,19.8681 15.3935,19.9531 C16.2855,20.5261 16.4495,21.1301 17.0735,21.8731 C17.6155,22.5191 18.6845,23.9911 19.4735,24.0331 C19.6865,24.0441 19.6605,24.2601 19.7135,24.2731 C20.2935,24.4131 21.2825,24.3691 21.8735,24.2731 C23.5215,24.0051 24.9225,22.7491 24.9935,21.3931 C25.0045,21.1911 25.2255,21.1911 25.2335,21.1531 C25.4175,20.2571 25.0985,19.0911 25.2335,18.0331 C24.9915,18.0831 25.0745,17.9141 24.9935,17.7931 M20.6735,32.6731 C21.1605,33.0821 21.6225,33.4791 22.1135,33.8731 C22.5195,34.1991 22.7855,34.4961 23.3135,34.8331 C23.4935,34.9471 23.9335,35.0531 24.2735,35.3141 C24.6255,35.5821 24.8565,36.3661 26.1935,36.0331 C26.1385,36.7431 25.5285,37.2031 24.9935,37.7131 C24.6215,38.0671 24.3355,38.3281 23.7935,38.6731 C23.5395,38.8351 23.2215,39.3731 22.8335,39.3931 C22.5255,39.4091 22.5285,39.7421 22.3535,39.8731 C22.2685,39.9371 21.9385,39.7931 21.8735,39.8731 C21.7055,40.0781 21.4475,40.3141 20.9135,40.5931 C20.7575,40.6751 20.5955,40.7301 20.4335,40.8331 C20.1985,40.9821 20.0565,40.9871 19.7135,41.0731 C19.5025,41.1261 19.3025,41.2361 18.9935,41.3141 C18.7145,41.3831 18.5395,41.5001 17.7935,41.5531 C17.6435,41.5641 17.4585,41.5171 17.3135,41.5531 C17.1675,41.5901 17.0745,41.7931 17.0735,41.7931 C16.0985,41.9401 15.3615,41.9671 14.4335,42.0331 C13.1615,42.1241 11.6665,41.7471 10.1135,41.3141 C9.8095,41.2291 9.3195,40.9351 8.9135,40.8331 C8.3915,40.7021 8.4035,40.7831 7.7135,40.5931 C7.4085,40.5091 7.1685,40.1351 6.7535,40.1131 C6.7235,40.1111 6.3045,39.9071 6.2735,39.8731 C6.1195,39.7011 6.1935,39.3341 6.0335,39.1531 C5.7895,38.8781 5.3645,38.4701 5.0735,38.1931 C4.9135,38.0401 4.5245,38.0841 4.3535,37.9531 C4.2145,37.8471 4.0165,37.6051 3.8735,37.4731 C3.5505,37.1751 3.0795,36.7281 2.9135,36.5131 C2.8485,36.4291 2.9935,36.0991 2.9135,36.0331 C2.5505,35.7351 2.5245,35.5921 2.1935,35.0731 C2.0195,34.8011 1.9245,34.5731 1.7135,34.3531 C1.5985,34.2331 1.2265,33.7511 0.9935,33.3931 C0.7035,32.9531 0.7645,32.1041 0.5135,31.2331 C0.3125,30.5351 -0.1235,30.1191 0.0335,28.8331 C0.0845,28.4141 0.2745,28.3171 0.2735,27.8731 C0.2725,27.2041 -0.0095,26.5241 0.0335,25.9531 C0.0835,25.2991 0.3265,24.3781 0.5135,23.5531 C0.5955,23.1891 0.6465,22.7241 0.7535,22.3531 C0.8375,22.0621 1.2145,21.5141 1.2335,21.1531 C1.2495,20.8431 1.5885,20.8501 1.7135,20.6731 C1.7745,20.5861 1.6355,20.2571 1.7135,20.1931 C1.7895,20.1311 2.1455,20.0281 2.1935,19.9531 C2.2495,19.8651 2.1175,19.5361 2.1935,19.4731 C2.2575,19.4211 2.6405,19.2941 2.6735,19.2331 C2.8305,18.9481 2.7155,18.5321 2.9135,18.2731 C3.0665,18.0731 3.5935,17.5931 3.8735,17.3131 C4.2235,16.9641 4.5415,16.6301 4.8335,16.3531 C5.0995,16.1001 5.5255,15.6201 5.7935,15.3931 C5.9845,15.2321 6.2955,15.3161 6.5135,15.1531 C6.6175,15.0751 6.6545,14.7321 6.7535,14.6731 C6.8415,14.6201 7.1715,14.7491 7.2335,14.6731 C7.2565,14.6451 7.2035,14.4471 7.2335,14.4331 C7.3205,14.3921 7.6565,14.5031 7.7135,14.4331 C7.8835,14.2261 8.2695,14.1931 8.9135,13.9531 C9.0085,13.9181 8.9075,13.7261 9.1535,13.7131 C9.6945,13.6851 10.2265,13.4301 11.0735,13.2331 C13.3765,12.6971 15.8945,12.4731 17.7935,13.2331 C17.8795,13.2671 18.2195,13.1671 18.2735,13.2331 C18.5565,13.5791 20.1925,13.4771 20.9135,13.7131 C21.0395,13.7541 21.3035,14.1661 21.3935,14.1931 C21.9795,14.3701 22.0855,14.2841 22.5935,14.6731 C22.7775,14.8141 22.9135,15.0331 23.0735,15.1531 C23.2585,15.2921 23.5865,15.2381 23.7935,15.3931 C23.9245,15.4911 23.9135,15.7711 24.0335,15.8731 C24.2275,16.0381 24.5735,15.9451 24.7535,16.1131 C24.9135,16.2621 25.5785,17.1871 25.7135,17.5531 C25.7445,17.6371 25.6495,17.9801 25.7135,18.0331 C25.7315,18.0471 25.9505,18.0171 25.9535,18.0331 C26.1945,19.3141 25.7985,21.2101 25.4735,22.1131 C25.2825,22.6451 25.0805,23.2101 24.9935,23.3141 C24.9265,23.3931 24.5885,23.7401 24.5135,23.7931 C24.4275,23.8541 24.0985,23.7151 24.0335,23.7931 C24.0075,23.8251 24.0675,24.0151 24.0335,24.0331 C23.9455,24.0821 23.6145,23.9591 23.5535,24.0331 C23.5305,24.0621 23.5835,24.2591 23.5535,24.2731 C23.4665,24.3141 23.1305,24.2031 23.0735,24.2731 C22.8745,24.5171 22.3705,24.5851 21.6335,24.7531 C21.5865,24.7641 21.6025,24.9821 21.3935,24.9931 C20.7305,25.0281 20.1395,24.9891 19.4735,24.7531 C18.2905,24.3341 17.6235,23.5061 16.8335,22.5931 C15.9995,21.6291 15.5195,20.4111 14.4335,20.1931 C14.0275,20.1111 13.4145,20.3341 12.9935,20.4331 C12.3225,20.5911 11.8595,20.6541 11.3135,20.9131 C11.1975,20.9681 11.3365,21.1391 11.0735,21.1531 C10.8395,21.1651 10.5925,21.8081 9.8735,21.6331 C7.8085,24.6961 7.1495,28.6781 8.9135,31.4731 C9.1555,31.8571 9.4735,32.0231 9.8735,32.4331 C10.1415,32.7081 10.3845,33.2421 10.5935,33.3931 C10.8395,33.5691 11.5045,33.6081 12.0335,33.8731 C12.1935,33.9531 12.3765,34.2761 12.5135,34.3531 C12.6015,34.4011 12.9335,34.2791 12.9935,34.3531 C13.1725,34.5711 13.8075,34.6661 14.6735,34.8331 C15.8675,35.0641 16.5175,35.0971 17.5535,34.5931 C17.6905,34.5261 18.1175,34.4711 18.2735,34.3531 C18.3775,34.2751 18.4145,33.9331 18.5135,33.8731 C18.7655,33.7221 19.0015,33.7621 19.2335,33.6331 C19.3605,33.5631 19.2015,33.4071 19.4735,33.3931 C19.8075,33.3751 19.9855,32.6321 20.6735,32.6731" id="Fill-14"></path>
                <path d="M90.994,19.233 C91.653,19.774 93.562,19.064 93.634,20.193 C93.454,21.287 93.322,22.279 92.914,23.314 C92.872,23.419 92.503,23.665 92.433,23.793 C92.128,24.361 92.181,24.867 91.954,25.233 C91.914,25.297 91.787,25.363 91.714,25.473 C91.413,25.924 91.344,26.472 91.233,26.913 C91.185,27.107 91.022,27.081 90.994,27.153 C90.807,27.623 90.701,28.149 90.514,28.593 C90.465,28.709 90.095,28.93 90.034,29.073 C89.67,29.922 89.957,30.881 89.074,31.233 C88.255,30.716 87.831,29.728 87.393,28.833 C87.175,28.384 87.127,27.903 86.914,27.393 C86.697,26.876 86.526,26.929 86.433,26.433 C86.39,26.201 86.275,26.141 86.193,25.953 C85.351,24.017 84.463,22.119 83.794,20.193 C84.515,19.714 85.873,19.872 86.674,19.473 C86.727,17.687 87.06,16.179 86.914,14.193 C85.971,13.702 85.031,14.166 84.034,14.193 C82.572,14.233 80.544,14.137 79.474,14.193 C79.325,14.201 79.203,14.435 79.233,14.433 C79,14.447 78.936,14.173 78.754,14.193 C78.51,14.22 78.475,14.386 78.274,14.433 C77.994,14.499 77.602,14.436 77.314,14.433 C76.687,14.426 76.101,14.232 75.393,14.193 C74.721,14.156 73.97,14.221 73.234,14.193 C73.198,16.229 73.651,17.775 73.474,19.953 C74.561,19.555 75.126,20.126 76.114,19.713 C77.441,21.032 77.946,22.861 78.754,24.513 C79.078,25.177 79.83,26.177 79.954,26.673 C79.988,26.812 79.894,27.024 79.954,27.153 C80.01,27.275 80.37,27.483 80.433,27.633 C80.49,27.766 80.398,27.972 80.433,28.113 C80.58,28.698 81.185,29.622 81.393,29.793 C81.468,29.854 81.345,30.186 81.393,30.274 C81.47,30.41 81.794,30.593 81.874,30.753 C82.09,31.185 82.146,31.756 82.353,32.193 C82.553,32.612 82.88,32.979 83.074,33.393 C83.317,33.914 83.355,34.369 83.554,34.833 C83.924,35.698 84.349,36.643 84.754,37.473 C85.185,38.357 85.884,39.125 85.954,40.113 L91.954,40.113 C92.225,39.372 92.54,38.654 92.914,37.953 C92.931,37.921 93.123,37.978 93.153,37.953 C93.233,37.888 93.09,37.559 93.153,37.473 C93.24,37.357 93.561,37.371 93.634,37.233 C93.729,37.051 93.574,36.712 93.634,36.513 C93.658,36.431 94.056,36.142 94.113,36.033 C94.243,35.792 94.336,35.65 94.353,35.314 C94.368,35.046 94.533,35.193 94.594,35.073 C94.842,34.58 95.165,33.994 95.313,33.873 C95.388,33.813 95.265,33.481 95.313,33.393 C95.39,33.257 95.722,33.076 95.794,32.913 C95.882,32.714 95.73,32.402 95.794,32.193 C95.82,32.106 96.222,31.831 96.273,31.713 C96.298,31.657 96.27,31.534 96.273,31.473 C96.297,31.032 96.735,30.859 96.754,30.513 C96.766,30.275 96.966,30.357 96.994,30.274 C97.223,29.588 97.06,29.404 97.233,28.833 C97.261,28.744 97.666,28.475 97.714,28.353 C97.796,28.146 97.649,27.848 97.714,27.633 C97.74,27.544 98.146,27.275 98.193,27.153 C98.321,26.824 98.31,26.306 98.433,25.953 C98.601,25.474 98.762,25.116 98.914,24.753 C99.122,24.257 99.327,23.804 99.634,23.553 C99.718,23.484 99.815,22.92 99.874,22.833 C100.479,21.924 100.244,20.393 101.074,19.473 C101.904,19.104 103.262,19.261 104.433,19.233 C104.438,17.318 104.839,15.798 104.674,13.713 C102.422,13.082 99.983,13.813 97.714,13.713 C96.781,13.672 96.316,13.473 95.794,13.473 C95.5,13.473 95.294,13.672 94.834,13.713 C93.343,13.846 91.294,13.721 90.514,13.473 C90.647,15.419 90.969,17.178 90.994,19.233 M105.393,12.993 C105.432,15.512 105.385,17.944 104.914,19.953 L101.794,19.953 C101.239,19.997 101.469,20.292 101.313,20.913 C101.263,21.119 101.099,21.076 101.074,21.153 C100.908,21.67 101.122,21.92 100.834,22.353 C100.679,22.585 100.68,22.732 100.594,23.073 C100.536,23.306 100.301,23.621 100.113,24.033 C99.265,25.901 98.401,28.388 97.474,30.513 C97.09,31.394 96.662,32.31 96.273,33.153 C96.075,33.585 96.022,34.18 95.794,34.593 C95.696,34.77 95.425,34.921 95.313,35.073 C95.195,35.234 95.174,35.361 95.074,35.553 C94.232,37.171 93.352,38.699 92.674,40.353 C90.982,41.222 87.889,40.689 85.474,40.833 C85.369,40.143 85.085,39.583 84.754,38.913 C84.494,38.389 84.051,37.772 83.794,37.233 C83.496,36.609 83.347,35.967 83.074,35.314 C82.723,34.47 82.257,33.604 81.874,32.673 C81.779,32.443 81.782,32.033 81.634,31.713 C81.583,31.604 81.194,31.563 81.153,31.473 C80.972,31.068 81.111,30.823 80.914,30.513 C80.864,30.435 80.681,30.289 80.674,30.274 C80.405,29.7 80.207,28.947 79.954,28.353 C79.908,28.246 79.727,28.369 79.714,28.113 C79.71,28.049 79.737,27.932 79.714,27.873 C79.612,27.619 79.475,27.198 79.233,26.673 C79.164,26.522 79.093,26.349 78.994,26.193 C78.922,26.08 78.79,26.015 78.754,25.953 C78.633,25.748 78.292,25.337 78.274,24.993 C78.268,24.882 78.095,24.645 78.034,24.513 C77.571,23.512 77.012,22.045 76.353,20.913 C76.16,20.707 75.696,20.771 75.634,20.433 C74.428,20.153 73.457,20.962 72.754,20.433 C72.518,19.558 72.79,18.477 72.754,17.313 C72.716,16.125 72.316,14.762 72.514,13.473 C77.409,14.052 82.175,13.274 87.393,13.473 C88.06,15.617 87.296,18.307 87.153,20.433 C86.59,20.876 85.721,20.106 84.754,20.673 C85.009,21.473 85.386,22.317 85.714,23.073 C85.878,23.45 86.02,23.901 86.193,24.274 C86.238,24.368 86.381,24.3 86.433,24.513 C86.539,24.934 86.802,25.264 86.914,25.713 C87.006,26.081 87.005,26.313 87.153,26.673 C87.203,26.793 87.607,27.065 87.634,27.153 C87.696,27.361 87.545,27.676 87.634,27.873 C87.707,28.036 88.038,28.217 88.113,28.353 C88.163,28.44 88.04,28.773 88.113,28.833 C88.254,28.948 88.644,29.524 88.834,30.033 C89.486,29.375 89.683,28.425 90.034,27.633 C90.086,27.516 90.487,27.24 90.514,27.153 C90.686,26.581 90.525,26.399 90.754,25.713 C90.782,25.629 90.981,25.711 90.994,25.473 C91.022,24.92 91.268,25.047 91.474,24.753 C91.534,24.666 91.395,24.337 91.474,24.274 C91.67,24.112 91.64,24.09 91.714,23.793 C91.712,23.802 91.933,23.09 91.954,23.073 C92.332,22.764 92.838,21.338 92.914,20.433 C92.581,19.806 90.877,20.55 90.514,19.953 C90.172,17.895 89.903,15.763 89.794,13.473 C89.755,13.194 89.847,13.046 90.034,12.993 C90.228,12.947 90.273,12.753 90.514,12.753 C90.706,12.82 90.756,12.967 90.994,12.993 C93.76,13.294 97.318,13.131 100.353,12.993 C102.143,12.912 103.874,12.369 105.393,12.993" id="Fill-16"></path>
            </g>
        </g>
    </g>
</svg>