<?xml version="1.0" encoding="utf-8"?>
<!-- Generator: Adobe Illustrator 20.0.0, SVG Export Plug-In . SVG Version: 6.00 Build 0)  -->
<!DOCTYPE svg PUBLIC "-//W3C//DTD SVG 1.1//EN" "http://www.w3.org/Graphics/SVG/1.1/DTD/svg11.dtd">
<svg version="1.1" id="Layer_1" xmlns="http://www.w3.org/2000/svg" xmlns:xlink="http://www.w3.org/1999/xlink" x="0px" y="0px"
	 viewBox="0 0 40 40" style="enable-background:new 0 0 40 40;" xml:space="preserve">
<title>Fill 5 Copy</title>
<desc>Created with Sketch.</desc>
<g id="_x31_0.-nav">
	<g id="Open" transform="translate(-177.000000, -819.000000)">
		<g id="Group-4" transform="translate(20.000000, 800.000000)">
			<path id="Fill-5-Copy" d="M179.6,52.8l-4.7-9.4l7.5-9.7l-9.7,7.5l-9.5-4.2l28.4-12.6L179.6,52.8z M195.2,20.7
				c-0.5-0.5-1.2-0.6-1.8-0.3l-34.2,15.2c-0.6,0.3-1,0.9-1,1.5c0,0.7,0.4,1.3,1,1.5l12.5,5.5c0.1,0.1,0.1,0.2,0.3,0.3c0,0,0,0,0.1,0
				l6.1,12.3c0.3,0.6,0.9,0.9,1.5,0.9h0c0.7,0,1.2-0.4,1.5-1l14.4-34.2C195.8,21.9,195.7,21.2,195.2,20.7L195.2,20.7z"/>
		</g>
	</g>
</g>
</svg>
