<?xml version="1.0" encoding="utf-8"?>
<!-- Generator: Adobe Illustrator 20.0.0, SVG Export Plug-In . SVG Version: 6.00 Build 0)  -->
<!DOCTYPE svg PUBLIC "-//W3C//DTD SVG 1.1//EN" "http://www.w3.org/Graphics/SVG/1.1/DTD/svg11.dtd">
<svg version="1.1" id="Layer_1" xmlns="http://www.w3.org/2000/svg" xmlns:xlink="http://www.w3.org/1999/xlink" x="0px" y="0px"
	 viewBox="0 0 36.1 30.3" style="enable-background:new 0 0 36.1 30.3;" xml:space="preserve">
<style type="text/css">
	.st0{fill:#FFFFFF;}
</style>
<title>Fill 1 Copy</title>
<desc>Created with Sketch.</desc>
<g>
	<g id="_x31_0.-nav">
		<g id="Open" transform="translate(-32.000000, -822.000000)">
			<g id="Group-4" transform="translate(20.000000, 800.000000)">
				<g>
					<path d="M24.3,52.3c-4.3,0-8-1-11.1-3c-1-0.7-1.5-2-1-3.1c0.4-1.2,1.6-1.9,2.9-1.7c0.8,0.1,1.9,0.1,2.9-0.1
						c-1.1-1-1.9-2.3-2.4-3.8c-0.1-0.4-0.1-0.8-0.1-1.2c-1.4-1.6-2.2-3.7-2.2-5.9c0-0.6,0.2-1.1,0.5-1.6C13.5,31,13.3,30,13.3,29
						c0-1.5,0.4-2.9,1.2-4.4c0.4-0.8,1.2-1.3,2.1-1.3c0.9-0.1,1.7,0.3,2.3,0.9c2.2,2.6,5.1,4.4,8.4,5.1c0.7-4.2,4.4-7.4,8.8-7.4
						c1.9,0,3.8,0.6,5.3,1.7c0.7-0.2,1.4-0.5,2-0.9c0.9-0.6,2.1-0.5,3,0.2c0.8,0.6,1.1,1.6,0.9,2.6c0.1,0.1,0.2,0.2,0.3,0.3
						c0.8,0.9,0.8,2.2,0.2,3.2c-0.8,1.2-1.7,2.2-2.7,3.1c-0.1,4.9-2,9.7-5.3,13.4C35.8,49.9,30.4,52.3,24.3,52.3z"/>
				</g>
			</g>
		</g>
	</g>
	<g id="_x31_0.-nav_1_">
		<g id="Open_1_" transform="translate(-32.000000, -822.000000)">
			<g id="Group-4_1_" transform="translate(20.000000, 800.000000)">
				<path id="Fill-1-Copy_1_" class="st0" d="M42.3,30.9v0.8c0,8.4-6.4,18-18,18c-3.6,0-6.9-0.8-9.7-2.6c0.5,0.1,1,0.1,1.5,0.1
					c3,0,5.7-1.3,7.8-3c-2.7,0-5.1-1.9-5.9-4.4c0.4,0.1,0.8,0.1,1.2,0.1c0.6,0,1.1-0.1,1.7-0.2c-2.9-0.6-5.1-3.1-5.1-6.2v-0.1
					c0.9,0.5,1.8,0.8,2.9,0.8c-1.7-1.1-2.8-3.1-2.8-5.2c0-1.2,0.3-2.1,0.9-3.1c3.1,3.8,7.8,6.2,13,6.5c-0.1-0.5-0.1-1-0.1-1.5
					c0-3.5,2.8-6.3,6.3-6.3c1.8,0,3.5,0.8,4.7,2c1.4-0.3,2.8-0.8,4-1.5c-0.5,1.5-1.5,2.7-2.8,3.5c1.3-0.1,2.5-0.5,3.6-1
					C44.6,28.9,43.5,30,42.3,30.9z"/>
			</g>
		</g>
	</g>
</g>
</svg>
