<?xml version="1.0" encoding="UTF-8" standalone="no"?>
<svg width="40px" height="40px" viewBox="0 0 30 30" version="1.1" xmlns="http://www.w3.org/2000/svg" xmlns:xlink="http://www.w3.org/1999/xlink">
    <!-- Generator: Sketch 3.8.3 (29802) - http://www.bohemiancoding.com/sketch -->
    <title>Group 3 Copy 3</title>
    <desc>Created with Sketch.</desc>
    <defs></defs>
    <g id="03.-Hours-and-Locations" stroke="none" stroke-width="1" fill="none" fill-rule="evenodd">
        <g id="Locations" transform="translate(-193.000000, -443.000000)">
            <g id="Group-2" transform="translate(0.000000, 306.000000)">
                <g id="Group-3-Copy-3" transform="translate(193.000000, 137.000000)">
                    <ellipse stroke="#FFFFFF" stroke-width="1" id="Oval-4" fill="#bbbbbb" cx="14.997709" cy="14.997709" rx="14.997709" ry="14.997709"></ellipse>
                    <g id="Page-1" transform="translate(4.374332, 9.998473)" fill="#FFFFFF">
                        <path d="M15.7965869,4.62511584 L15.7965869,1.85004634 L17.9233871,1.85004634 L18.8347062,4.62511584 L15.7965869,4.62511584 Z M19.7448588,4.62511584 L18.5305443,0.925023169 L18.5305443,0 L0.607157252,0 L0.607157252,8.01647278 L0,8.01647278 L0,9.40415554 L3.83541411,9.40415554 C3.83541411,8.12747556 4.85492504,7.09144962 6.11385772,7.09144962 C7.37249879,7.09144962 8.39200972,8.12629153 8.39200972,9.40415554 L15.4924251,9.40415554 C15.4924251,8.12747556 16.511936,7.09144962 17.7708687,7.09144962 C18.6559418,7.09144962 19.4214499,7.60472647 19.7985173,8.35421724 C19.9338299,8.62358399 20.0184004,8.92314349 20.0399804,9.23987143 C20.0431882,9.29404078 20.0478542,9.34850615 20.0478542,9.40415554 L21.8716589,9.40415554 L21.8716589,5.55013901 L19.7448588,4.62511584 Z" id="Fill-1"></path>
                        <path d="M6.11385772,10.3291787 C5.61022632,10.3291787 5.2025386,9.91506434 5.2025386,9.40415554 C5.2025386,8.89295074 5.61022632,8.47913237 6.11385772,8.47913237 C6.6171975,8.47913237 7.02517684,8.89295074 7.02517684,9.40415554 C7.02517684,9.91506434 6.61632263,10.3291787 6.11385772,10.3291787 M6.11385772,7.70892108 C5.19116534,7.70892108 4.44257136,8.46847611 4.44257136,9.40504356 C4.44257136,10.341907 5.19116534,11.1014621 6.11385772,11.1014621 C7.03655011,11.1014621 7.78368598,10.341907 7.78368598,9.40504356 C7.78368598,8.46847611 7.03538362,7.70892108 6.11385772,7.70892108" id="Fill-3"></path>
                        <path d="M17.7708687,10.3291787 C17.2672373,10.3291787 16.8592579,9.91506434 16.8592579,9.40415554 C16.8592579,8.89295074 17.2672373,8.47913237 17.7708687,8.47913237 C18.2742085,8.47913237 18.6818962,8.89295074 18.6818962,9.40415554 C18.6818962,9.91506434 18.2742085,10.3291787 17.7708687,10.3291787 M17.7708687,7.70892108 C16.8478847,7.70892108 16.0995823,8.46847611 16.0995823,9.40504356 C16.0995823,10.341907 16.8478847,11.1014621 17.7708687,11.1014621 C18.6935611,11.1014621 19.4418634,10.341907 19.4418634,9.40504356 C19.4418634,8.46847611 18.6935611,7.70892108 17.7708687,7.70892108" id="Fill-5"></path>
                    </g>
                </g>
            </g>
        </g>
    </g>
</svg>
