<?xml version="1.0" encoding="UTF-8" standalone="no"?>
<svg width="40px" height="40px" viewBox="0 0 30 30" version="1.1" xmlns="http://www.w3.org/2000/svg" xmlns:xlink="http://www.w3.org/1999/xlink">
    <!-- Generator: Sketch 3.8.3 (29802) - http://www.bohemiancoding.com/sketch -->
    <title>Group 2 Copy 3</title>
    <desc>Created with Sketch.</desc>
    <defs></defs>
    <g id="03.-Hours-and-Locations" stroke="none" stroke-width="1" fill="none" fill-rule="evenodd">
        <g id="Locations" transform="translate(-68.000000, -484.000000)">
            <g id="Group-2" transform="translate(0.000000, 306.000000)">
                <g id="Group-2-Copy-3" transform="translate(68.000000, 178.000000)">
                    <ellipse stroke="#FFFFFF" stroke-width="1" id="Oval-4-Copy" fill="#bbbbbb" cx="14.997709" cy="14.997709" rx="14.997709" ry="14.997709"></ellipse>
                    <g id="Page-1" transform="translate(6.249045, 7.498854)" fill="#FFFFFF">
                        <path d="M17.3906976,0 L0.434329486,0 C0.193605842,0 0,0.197273786 0,0.44019011 L0,1.10185374 C0,1.34599537 0.194813991,1.54235018 0.434329486,1.54235018 L0.651192192,1.54235018 L0.651192192,14.9906635 C0.651192192,15.2348051 0.846006182,15.4311599 1.08552168,15.4311599 L16.7370891,15.4311599 C16.9778127,15.4311599 17.1714186,15.2335798 17.1714186,14.9906635 L17.1714186,1.54357548 L17.3882813,1.54357548 C17.6290049,1.54357548 17.8226108,1.34599537 17.8226108,1.10307904 L17.8226108,0.441415413 C17.8250271,0.197273786 17.6302131,0 17.3906976,0 L17.3906976,0 Z M10.8688084,7.93690032 L6.95621863,7.93690032 C6.71579702,7.93690032 6.52219118,8.1341741 6.52219118,8.37709043 L6.52219118,12.5664015 L1.52196542,12.5664015 L1.52196542,5.06969125 C1.68959607,5.1416778 1.87232857,5.18119382 2.06472626,5.18119382 C2.44468905,5.18119382 2.78931349,5.02925625 3.0427227,4.78143871 C3.29643394,5.02925625 3.64226653,5.18119382 4.02102117,5.18119382 C4.40068193,5.18119382 4.74530636,5.02925625 4.99901761,4.78143871 C5.25272885,5.02925625 5.5982594,5.18119382 5.97701404,5.18119382 C6.35576869,5.18119382 6.70160127,5.02925625 6.95531252,4.78143871 C7.20872172,5.02925625 7.55455431,5.18119382 7.93330895,5.18119382 C8.3120636,5.18119382 8.65759415,5.02925625 8.91130539,4.78143871 C9.16501663,5.02925625 9.51054718,5.18119382 9.88930183,5.18119382 C10.2692646,5.18119382 10.6138891,5.02925625 10.8676003,4.78143871 C11.1210095,5.02925625 11.4668421,5.18119382 11.8455967,5.18119382 C12.2243514,5.18119382 12.5698819,5.02925625 12.8235932,4.78143871 C13.0773044,5.02925625 13.423137,5.18119382 13.8018916,5.18119382 C14.1803442,5.18119382 14.5261768,5.02925625 14.7798881,4.78143871 C15.0335993,5.02925625 15.3791299,5.18119382 15.7578845,5.18119382 C15.9502822,5.18119382 16.1342229,5.1416778 16.3006454,5.06969125 L16.3006454,12.5664015 L11.304044,12.5664015 L11.304044,8.37831573 C11.304044,8.1341741 11.1092301,7.93690032 10.8688084,7.93690032 L10.8688084,7.93690032 Z M12.3907739,1.54357548 L12.3907739,3.74881459 C12.3907739,4.05268974 12.1464258,4.30050728 11.8468049,4.30050728 C11.547184,4.30050728 11.3028359,4.05268974 11.3028359,3.74881459 L11.3028359,1.54357548 L12.3907739,1.54357548 Z M10.434479,1.54357548 L10.434479,3.74881459 C10.434479,4.05268974 10.1901309,4.30050728 9.89050997,4.30050728 C9.59088908,4.30050728 9.34774914,4.05268974 9.34774914,3.74881459 L9.34774914,1.54357548 L10.434479,1.54357548 Z M8.47818405,1.54357548 L8.47818405,3.74881459 C8.47818405,4.05268974 8.234138,4.30050728 7.93572525,4.30050728 C7.63580232,4.30050728 7.39175626,4.05268974 7.39175626,3.74881459 L7.39175626,1.54357548 L8.47818405,1.54357548 Z M6.52098303,1.54357548 L6.52098303,3.74881459 C6.52098303,4.05268974 6.27663494,4.30050728 5.97701404,4.30050728 C5.67739315,4.30050728 5.43304506,4.05268974 5.43304506,3.74881459 L5.43304506,1.54357548 L6.52098303,1.54357548 Z M4.56468812,1.54357548 L4.56468812,3.74881459 C4.56468812,4.05268974 4.32064207,4.30050728 4.02102117,4.30050728 C3.72109824,4.30050728 3.47826033,4.05268974 3.47826033,3.74881459 L3.47826033,1.54357548 L4.56468812,1.54357548 Z M14.3467667,3.74881459 C14.3467667,4.05268974 14.1027207,4.30050728 13.8040059,4.30050728 C13.504385,4.30050728 13.260339,4.05268974 13.260339,3.74881459 L13.260339,1.54357548 L14.3467667,1.54357548 L14.3467667,3.74881459 Z M2.60869525,1.54357548 L2.60869525,3.74881459 C2.60869525,4.05268974 2.36434716,4.30050728 2.06472626,4.30050728 C1.76510537,4.30050728 1.52196542,4.05268974 1.52196542,3.74881459 L1.52196542,1.54357548 L2.60869525,1.54357548 Z M1.52196542,14.5513923 L6.52219118,14.5513923 L6.52219118,13.4495386 L1.52196542,13.4495386 L1.52196542,14.5513923 Z M7.39054811,13.0078169 L7.39054811,8.81881217 L10.434479,8.81881217 L10.434479,14.5513923 L7.39054811,14.5513923 L7.39054811,13.0078169 Z M16.3030617,14.5513923 L11.304044,14.5513923 L11.304044,13.4495386 L16.3042698,13.4495386 L16.3042698,14.5513923 L16.3030617,14.5513923 Z M16.3030617,3.74881459 C16.3030617,4.05268974 16.0587136,4.30050728 15.7603008,4.30050728 C15.4606799,4.30050728 15.2163318,4.05268974 15.2163318,3.74881459 L15.2163318,1.54357548 L16.3030617,1.54357548 L16.3030617,3.74881459 Z" id="Fill-1"></path>
                    </g>
                </g>
            </g>
        </g>
    </g>
</svg>
