<?xml version="1.0" encoding="utf-8"?>
<!-- Generator: Adobe Illustrator 20.0.0, SVG Export Plug-In . SVG Version: 6.00 Build 0)  -->
<!DOCTYPE svg PUBLIC "-//W3C//DTD SVG 1.1//EN" "http://www.w3.org/Graphics/SVG/1.1/DTD/svg11.dtd">
<svg version="1.1" id="Layer_1" xmlns="http://www.w3.org/2000/svg" xmlns:xlink="http://www.w3.org/1999/xlink" x="0px" y="0px"
	 viewBox="0 0 33 33" style="enable-background:new 0 0 33 33;" xml:space="preserve">
<title>Fill 7 Copy</title>
<desc>Created with Sketch.</desc>
<g id="_x31_0.-nav_2_">
	<g id="Open_2_" transform="translate(-337.000000, -822.000000)">
		<g id="Group-4_2_" transform="translate(20.000000, 800.000000)">
			<path id="Fill-7-Copy_2_" d="M331.1,46.5c-5.7,0-10.4-4.7-10.4-10.4c0-5.7,4.7-10.4,10.4-10.4c5.7,0,10.4,4.7,10.4,10.4
				C341.5,41.8,336.8,46.5,331.1,46.5 M349,51.6l-7.2-7.2c1.8-2.3,2.9-5.2,2.9-8.3c0-7.5-6.1-13.6-13.6-13.6s-13.6,6.1-13.6,13.6
				s6.1,13.6,13.6,13.6c3.1,0,6-1.1,8.3-2.9l7.2,7.2c0.3,0.3,0.8,0.5,1.2,0.5s0.9-0.2,1.2-0.5C349.7,53.4,349.7,52.3,349,51.6"/>
		</g>
	</g>
</g>
</svg>
