<?xml version="1.0" encoding="UTF-8" standalone="no"?>
<svg width="36px" height="36px" viewBox="0 0 36 36" version="1.1" xmlns="http://www.w3.org/2000/svg" xmlns:xlink="http://www.w3.org/1999/xlink">
    <!-- Generator: Sketch 3.8.3 (29802) - http://www.bohemiancoding.com/sketch -->
    <title>Fill 3 Copy</title>
    <desc>Created with Sketch.</desc>
    <defs></defs>
    <g id="10.-nav" stroke="none" stroke-width="1" fill="none" fill-rule="evenodd">
        <g id="Open" transform="translate(-104.000000, -818.000000)" fill="#000000">
            <g id="Group-4" transform="translate(20.000000, 800.000000)">
                <path d="M115.917675,22.6827455 C115.917675,22.2698298 115.591507,21.9436611 115.178591,21.9436611 L110.789193,21.9436611 C110.379747,21.9436611 110.053578,22.2698298 110.053578,22.6827455 L110.053578,27.0721436 C110.053578,27.4850594 110.379747,27.8112281 110.789193,27.8112281 L115.178591,27.8112281 C115.591507,27.8112281 115.917675,27.4850594 115.917675,27.0721436 L115.917675,22.6827455 Z M95.4245644,35.8544098 C95.4245644,39.490844 98.3739624,42.440242 102.010397,42.440242 C105.643361,42.440242 108.596229,39.490844 108.596229,35.8544098 C108.596229,32.2179756 105.643361,29.2685777 102.010397,29.2685777 C98.3739624,29.2685777 95.4245644,32.2179756 95.4245644,35.8544098 L95.4245644,35.8544098 Z M115.917675,33.6579758 L112.02447,33.6579758 C112.180615,34.3623614 112.246542,35.097976 112.246542,35.8544098 C112.246542,41.513784 107.669771,46.0940256 102.010397,46.0940256 C96.3510224,46.0940256 91.7707808,41.513784 91.7707808,35.8544098 C91.7707808,35.097976 91.8401784,34.3623614 91.9928532,33.6579758 L88.0996478,33.6579758 L88.0996478,49.0260741 C88.0996478,49.43552 88.4258166,49.7616887 88.8387323,49.7616887 L115.178591,49.7616887 C115.591507,49.7616887 115.917675,49.43552 115.917675,49.0260741 L115.917675,33.6579758 Z M119.571459,23.4218299 L119.571459,48.2869897 C119.571459,51.1184118 117.270929,53.4154723 114.442977,53.4154723 L89.5743468,53.4154723 C86.7463947,53.4154723 84.4458643,51.1184118 84.4458643,48.2869897 L84.4458643,23.4218299 C84.4458643,20.5904079 86.7463947,18.2933473 89.5743468,18.2933473 L114.442977,18.2933473 C117.270929,18.2933473 119.571459,20.5904079 119.571459,23.4218299 L119.571459,23.4218299 Z" id="Fill-3-Copy"></path>
            </g>
        </g>
    </g>
</svg>