<?xml version="1.0" encoding="UTF-8" standalone="no"?>
<svg width="36px" height="30px" viewBox="0 0 36 30" version="1.1" xmlns="http://www.w3.org/2000/svg" xmlns:xlink="http://www.w3.org/1999/xlink">
    <!-- Generator: Sketch 3.8.3 (29802) - http://www.bohemiancoding.com/sketch -->
    <title>Fill 1 Copy</title>
    <desc>Created with Sketch.</desc>
    <defs></defs>
    <g id="10.-nav" stroke="none" stroke-width="1" fill="none" fill-rule="evenodd">
        <g id="Open" transform="translate(-32.000000, -822.000000)" fill="#000000">
            <g id="Group-4" transform="translate(20.000000, 800.000000)">
                <path d="M44.2317149,29.7127223 L44.2317149,30.6773489 C44.2317149,40.4034224 36.8339309,51.6215444 23.3048689,51.6215444 C19.1514226,51.6215444 15.2408679,50.7089659 12,48.6235681 C12.5760001,48.7137849 13.15547,48.7484837 13.7522894,48.7484837 C17.1874705,48.7484837 20.3936396,47.2564354 22.8815436,45.2612544 C19.6927239,45.2230857 16.9411091,43.0509409 16.0285306,40.1431814 C16.4865548,40.2299284 16.9411091,40.2819766 17.3956633,40.2819766 C18.0618803,40.2819766 18.7280972,40.1952296 19.3596154,40.0182658 C15.9938318,39.3520488 13.4538797,36.3748918 13.4538797,32.7974456 L13.4538797,32.7106986 C14.4532051,33.2519998 15.5739764,33.5851083 16.7849645,33.6198071 C14.7863136,32.2908431 13.4885785,30.0458308 13.4885785,27.523228 C13.4885785,26.1560953 13.8737352,25.0318542 14.4879039,23.9457818 C18.1520972,28.3976378 23.5477605,31.166602 29.6478095,31.4997105 C29.5263637,30.9757586 29.4916649,30.3789392 29.4916649,29.7994693 C29.4916649,25.73277 32.7672316,22.4572033 36.8339309,22.4572033 C38.9574974,22.4572033 40.8659314,23.3663118 42.2504135,24.7716132 C43.8986065,24.4385047 45.4947512,23.824336 46.8965828,22.9811552 C46.3518116,24.6987457 45.1963416,26.1560953 43.652245,27.0652039 C45.1616428,26.8917099 46.5634743,26.4892038 47.8959082,25.8923845 C46.8965828,27.3983124 45.6508958,28.6786981 44.2317149,29.7127223" id="Fill-1-Copy"></path>
            </g>
        </g>
    </g>
</svg>